<svg width="26" height="23" viewBox="0 0 26 23" fill="none" xmlns="http://www.w3.org/2000/svg">
<path d="M22.0904 14.6477H9.36708L9.65115 16.0366H21.3012C21.9697 16.0366 22.4651 16.6573 22.317 17.3092L22.0775 18.3628C22.8888 18.7566 23.4482 19.5882 23.4482 20.5505C23.4482 21.9048 22.3406 23.0003 20.9818 22.9808C19.6874 22.9622 18.6229 21.9118 18.588 20.6177C18.5689 19.9108 18.8521 19.27 19.3173 18.8144H10.2179C10.6683 19.2556 10.9482 19.8702 10.9482 20.5505C10.9482 21.9313 9.79676 23.0432 8.40171 22.9784C7.163 22.9209 6.15558 21.92 6.09047 20.6816C6.04021 19.7253 6.54342 18.8824 7.30796 18.4427L4.25905 3.53663H1.22593C0.650628 3.53663 0.184265 3.07026 0.184265 2.49496V1.80052C0.184265 1.22521 0.650628 0.75885 1.22593 0.75885H5.67597C6.17081 0.75885 6.59733 1.10698 6.6965 1.59175L7.09433 3.53663H24.1422C24.8106 3.53663 25.3061 4.15733 25.1579 4.80915L23.1061 13.8369C22.9984 14.3112 22.5768 14.6477 22.0904 14.6477ZM17.8926 8.05052H15.8093V6.31441C15.8093 5.93086 15.4984 5.61996 15.1148 5.61996H14.4204C14.0368 5.61996 13.7259 5.93086 13.7259 6.31441V8.05052H11.6426C11.259 8.05052 10.9482 8.36141 10.9482 8.74496V9.43941C10.9482 9.82296 11.259 10.1338 11.6426 10.1338H13.7259V11.87C13.7259 12.2535 14.0368 12.5644 14.4204 12.5644H15.1148C15.4984 12.5644 15.8093 12.2535 15.8093 11.87V10.1338H17.8926C18.2761 10.1338 18.587 9.82296 18.587 9.43941V8.74496C18.587 8.36141 18.2761 8.05052 17.8926 8.05052Z" fill="#fff"/>
</svg>
